<svg width="1440" height="1023" viewBox="0 0 1440 1023" fill="none" xmlns="http://www.w3.org/2000/svg">
<mask id="mask0_18_248" style="mask-type:luminance" maskUnits="userSpaceOnUse" x="0" y="0" width="1440" height="1023">
<path d="M1440 0H0V1023H1440V0Z" fill="white"/>
</mask>
<g mask="url(#mask0_18_248)">
<path d="M1757.43 1045.52H-317.424V-22.5164H1757.43V1045.52ZM-315.984 1043.99H1755.99V-20.9819H-315.984V1043.99Z" fill="#FF009B" fill-opacity="0.09"/>
<path d="M1125.74 720.09H314.271V302.215H1125.74V720.09ZM315.706 718.555H1124.3V303.749H315.706V718.555Z" fill="#FF009B" fill-opacity="0.09"/>
<path d="M1166.24 740.908H273.762V281.396H1166.24V740.908ZM275.202 739.373H1164.8V282.931H275.202V739.373Z" fill="#FF009B" fill-opacity="0.09"/>
<path d="M1210.79 763.807H229.215V258.502H1210.79V763.807ZM230.655 762.273H1209.35V260.036H230.655V762.273Z" fill="#FF009B" fill-opacity="0.09"/>
<path d="M1259.8 788.994H180.206V233.31H1259.8V788.994ZM181.646 787.459H1258.36V234.845H181.646V787.459Z" fill="#FF009B" fill-opacity="0.09"/>
<path d="M1313.71 816.702H126.298V205.602H1313.7V816.702H1313.71ZM127.738 815.167H1312.26V207.137H127.738V815.167Z" fill="#FF009B" fill-opacity="0.09"/>
<path d="M1373 847.182H66.998V175.122H1373V847.177V847.182ZM68.438 845.648H1371.56V176.657H68.438V845.643V845.648Z" fill="#FF009B" fill-opacity="0.09"/>
<path d="M1438.23 880.706H1.77173V141.599H1438.23V880.706H1438.23ZM3.21173 879.171H1436.79V143.133H3.21173V879.171Z" fill="#FF009B" fill-opacity="0.09"/>
<path d="M1509.98 917.585H-69.9797V104.719H1509.98V917.585H1509.98ZM-68.5397 916.05H1508.54V106.254H-68.5397V916.05Z" fill="#FF009B" fill-opacity="0.09"/>
<path d="M1588.91 958.5H-148.906V64.5H1588.91V958.5H1588.91ZM-147.466 956.965H1587.46V66.0345H-147.466V956.965Z" fill="#FF009B" fill-opacity="0.09"/>
<path d="M1675.73 1002.78H-235.723V19.5291H1675.73V1002.78ZM-234.283 1001.24H1674.29V21.0636H-234.283V1001.24Z" fill="#FF009B" fill-opacity="0.09"/>
<path d="M314.721 718.591L-316.979 1044.01L-316.352 1045.39L315.348 719.972L314.721 718.591Z" fill="#FF009B" fill-opacity="0.09"/>
<path d="M-316.411 -22.4395L-317.037 -21.0574L314.67 303.638L315.295 302.255L-316.411 -22.4395Z" fill="#FF009B" fill-opacity="0.09"/>
<path d="M-108.99 1045.41L-109.734 1044.09L395.269 718.888V303.412L-109.734 -21.0941L-108.99 -22.4036L396.359 302.322L396.709 302.547V719.757L396.359 719.977L-108.99 1045.41Z" fill="#FF009B" fill-opacity="0.09"/>
<path d="M98.4293 1045.35L97.5269 1044.16L476.271 718.954V303.35L97.5269 -21.1507L98.4293 -22.3477L477.711 302.613V719.69L477.447 719.921L98.4293 1045.35Z" fill="#FF009B" fill-opacity="0.09"/>
<path d="M305.874 1045.24L304.766 1044.26L557.274 719.046V303.258L304.766 -21.2582L305.874 -22.2402L558.714 302.706V719.598L305.874 1045.24Z" fill="#FF009B" fill-opacity="0.09"/>
<path d="M513.326 1045.05L511.997 1044.46L638.28 719.169V303.135L511.997 -21.4574L513.326 -22.0405L639.72 302.829V719.476L639.662 719.614L513.326 1045.05Z" fill="#FF009B" fill-opacity="0.09"/>
<path d="M720.72 -21.749H719.28V1044.75H720.72V-21.749Z" fill="#FF009B" fill-opacity="0.09"/>
<path d="M926.678 1045.05L800.285 719.476V302.829L800.337 302.685L926.678 -22.0405L928.008 -21.4574L801.725 303.135V719.169L928.008 1044.46L926.678 1045.05Z" fill="#FF009B" fill-opacity="0.09"/>
<path d="M1134.13 1045.24L881.289 719.598V302.706L881.452 302.491L1134.13 -22.2402L1135.24 -21.2582L882.729 303.258V719.046L1135.24 1044.26L1134.13 1045.24Z" fill="#FF009B" fill-opacity="0.09"/>
<path d="M1341.58 1045.35L962.289 719.69V302.613L962.558 302.383L1341.58 -22.3477L1342.48 -21.1507L963.729 303.35V718.954L1342.48 1044.16L1341.58 1045.35Z" fill="#FF009B" fill-opacity="0.09"/>
<path d="M1548.99 1045.41L1043.29 719.757V302.547L1043.64 302.322L1548.99 -22.4036L1549.74 -21.0941L1044.73 303.412V718.888L1549.74 1044.09L1548.99 1045.41Z" fill="#FF009B" fill-opacity="0.09"/>
<path d="M1125.3 718.596L1124.67 719.978L1756.37 1045.39L1757 1044.01L1125.3 718.596Z" fill="#FF009B" fill-opacity="0.09"/>
<path d="M1756.47 893.12L1124.9 660.612H315.105L-316.469 893.12L-316.94 891.672L314.865 659.078H1125.14L1125.25 659.119L1756.94 891.672L1756.47 893.12Z" fill="#FF009B" fill-opacity="0.09"/>
<path d="M1756.56 740.79L1124.94 601.135H315.062L-316.56 740.79L-316.848 739.286L314.914 599.6L1125.16 599.616L1756.85 739.286L1756.56 740.79Z" fill="#FF009B" fill-opacity="0.09"/>
<path d="M1756.66 588.445L1124.99 541.658H314.985L-316.657 588.445L-316.753 586.915L314.961 540.123H1125.07L1756.76 586.915L1756.66 588.445Z" fill="#FF009B" fill-opacity="0.09"/>
<path d="M1125.04 482.181L314.937 482.175L-316.753 436.089L-316.657 434.56L315.009 480.646H1125.02L1756.66 434.56L1756.76 436.089L1125.04 482.181Z" fill="#FF009B" fill-opacity="0.09"/>
<path d="M1125.09 422.703L314.841 422.688L-316.848 283.719L-316.56 282.215L315.057 421.169H1124.94L1756.56 282.215L1756.85 283.719L1125.09 422.703Z" fill="#FF009B" fill-opacity="0.09"/>
<path d="M1125.14 363.226H314.865L314.75 363.186L-316.94 131.333L-316.469 129.885L315.105 361.692H1124.89L1756.47 129.885L1756.94 131.333L1125.14 363.226Z" fill="#FF009B" fill-opacity="0.09"/>
<path d="M1756.42 -22.3655L1124.76 302.447L1125.39 303.829L1757.04 -20.9835L1756.42 -22.3655Z" fill="#FF009B" fill-opacity="0.09"/>
</g>
</svg>
